# xmcd
#
# Track frame offsets: 
#        150
#        14022
#        32615
#        43972
#        59775
#        74142
#        91762
#        103007
#        117727
#        129605
#        147685
#        165565
#
# Disc length: 2477 seconds
#
# Revision: 2
# Processed by: cddbd v1.5.2PL0 Copyright (c) Steve Scherf et al.
# Submitted via: ExactAudioCopy v1.0b4
#
DISCID=c009ab0c
DTITLE=K.C. Douglas - K.C.'S Blues
DYEAR=1961
DGENRE=Blues
TTITLE0=Broken Heart
TTITLE1=Hen House Blues
TTITLE2=Wake Up, Workin' Woman
TTITLE3=Rootin' Ground Hog
TTITLE4=Meanest Woman
TTITLE5=Born In The Country
TTITLE6=Love Me All Night Long
TTITLE7=Tell Me
TTITLE8=No More Crying
TTITLE9=K.C.'s Doctor Blues
TTITLE10=You Got A Good Thing Now
TTITLE11=Watch Dog Blues
EXTD=
EXTT0=
EXTT1=
EXTT2=
EXTT3=
EXTT4=
EXTT5=
EXTT6=
EXTT7=
EXTT8=
EXTT9=
EXTT10=
EXTT11=
PLAYORDER=
